<?xml version="1.0" encoding="utf-8"?>
<!-- Generator: Adobe Illustrator 24.1.2, SVG Export Plug-In . SVG Version: 6.00 Build 0)  -->
<svg version="1.1" id="图层_1" xmlns="http://www.w3.org/2000/svg" xmlns:xlink="http://www.w3.org/1999/xlink" x="0px" y="0px"
	 viewBox="0 0 326 326" style="enable-background:new 0 0 326 326;" xml:space="preserve">
<style type="text/css">
	.st0{fill:#302E32;}
	.st1{fill:#FFFFFF;}
</style>
<path class="st0" d="M326,295.2c0,17-13.8,30.8-30.8,30.8H30.8C13.8,326,0,312.2,0,295.2V30.8C0,13.8,13.8,0,30.8,0h264.5
	c17,0,30.8,13.8,30.8,30.8"/>
<g>
	<path class="st1" d="M92.7,146.2h46.1v30.5H92.7v62.5h57.9v30.5H59.2V56.3h91.5v30.5H92.7V146.2z"/>
	<path class="st1" d="M270.8,109v27.8c0,34.2-16.5,52.8-50,52.8H205v80.2h-33.5V56.3h49.4C254.4,56.3,270.8,74.9,270.8,109z
		 M205,86.8V159h15.9c10.7,0,16.5-4.9,16.5-20.1v-32c0-15.2-5.8-20.1-16.5-20.1H205z"/>
</g>
</svg>
