<?xml version="1.0" encoding="utf-8"?>
<!-- Generator: Adobe Illustrator 24.1.2, SVG Export Plug-In . SVG Version: 6.00 Build 0)  -->
<svg version="1.1" id="图层_1" xmlns="http://www.w3.org/2000/svg" xmlns:xlink="http://www.w3.org/1999/xlink" x="0px" y="0px"
	 viewBox="0 0 326 326" style="enable-background:new 0 0 326 326;" xml:space="preserve">
<style type="text/css">
	.st0{fill:#302E32;}
	.st1{fill:#FFFFFF;}
</style>
<path class="st0" d="M295.2,326H30.8C13.8,326,0,312.2,0,295.2V30.8C0,13.8,13.8,0,30.8,0h264.5c17,0,30.8,13.8,30.8,30.8v264.5
	C326,312.2,312.2,326,295.2,326z"/>
<g>
	<path class="st1" d="M54.6,107.2h26.3v17.4H54.6v35.6h33v17.4H35.5V55.9h52.2v17.4h-33V107.2z"/>
	<path class="st1" d="M156.1,86v15.8c0,19.5-9.4,30.1-28.5,30.1h-9v45.7H99.4V55.9h28.2C146.7,55.9,156.1,66.5,156.1,86z
		 M118.6,73.3v41.2h9c6.1,0,9.4-2.8,9.4-11.5V84.8c0-8.7-3.3-11.5-9.4-11.5H118.6z"/>
	<path class="st1" d="M182.9,89.4v88.2h-17.2V55.9h24l19.6,72.9V55.9h17v121.7h-19.6L182.9,89.4z"/>
	<path class="st1" d="M293.2,55.9v17l-36.3,87.3h36.3v17.4h-56v-17l36.3-87.3h-34.6V55.9H293.2z"/>
</g>
<g>
	<path class="st1" d="M59,253.6v6.8H42.4v24.1h20.3v6.9H34.9v-67.7h27.9v6.9H42.4v23.1H59z"/>
	<path class="st1" d="M69.7,291.4v-67.7h7.5v60.9h19.3v6.9H69.7z"/>
	<path class="st1" d="M126.4,253.6v6.8h-16.5v24.1h20.3v6.9h-27.9v-67.7h27.9v6.9h-20.3v23.1H126.4z"/>
	<path class="st1" d="M167,240v6.1h-7.2v-6.5c0-6.1-2.4-9.8-7.9-9.8c-5.4,0-7.9,3.7-7.9,9.8v35.8c0,6.1,2.5,9.8,7.9,9.8
		c5.5,0,7.9-3.7,7.9-9.8v-8.8h7.2v8.4c0,10.3-4.8,17-15.3,17c-10.4,0-15.2-6.8-15.2-17v-35c0-10.3,4.8-17,15.2-17
		C162.2,223,167,229.7,167,240z"/>
	<path class="st1" d="M183.7,291.4v-60.9h-12.5v-6.9h32.4v6.9h-12.5v60.9H183.7z"/>
	<path class="st1" d="M223.8,223.6c10.6,0,15.1,5.4,15.1,15.5v5.5c0,7.4-2.6,12.1-8.4,13.9c6.2,1.8,8.5,6.9,8.5,14.1v10.5
		c0,3,0.1,5.8,1.4,8.1h-7.6c-0.9-1.9-1.3-3.7-1.3-8.2v-10.6c0-7.6-3.6-10.1-9.9-10.1h-5.3v28.9h-7.5v-67.7H223.8z M221.9,255.6
		c6,0,9.6-1.9,9.6-9.3v-6.5c0-6.1-2.2-9.3-7.8-9.3h-7.4v25.1H221.9z"/>
	<path class="st1" d="M254.4,223.6v67.7h-7.5v-67.7H254.4z"/>
	<path class="st1" d="M292,240v6.1h-7.2v-6.5c0-6.1-2.4-9.8-7.9-9.8c-5.4,0-7.9,3.7-7.9,9.8v35.8c0,6.1,2.5,9.8,7.9,9.8
		c5.5,0,7.9-3.7,7.9-9.8v-8.8h7.2v8.4c0,10.3-4.8,17-15.3,17c-10.4,0-15.2-6.8-15.2-17v-35c0-10.3,4.8-17,15.2-17
		C287.2,223,292,229.7,292,240z"/>
</g>
</svg>
